<svg width="282" height="195" viewBox="0 0 282 195" fill="none" xmlns="http://www.w3.org/2000/svg">
<path d="M209.018 -43H207.044V123.262H209.018V-43Z" fill="white"/>
<path d="M150.306 178.87L154.931 189.078H261.132L265.757 178.87L220.58 147.569H195.539L150.306 178.87Z" fill="#2F2F2F"/>
<path d="M192.38 117.453L195.539 147.569H220.58L223.682 117.453H192.38Z" fill="#181818"/>
<path d="M150.306 178.87L154.987 189.078H261.132L265.757 178.87H150.306Z" fill="#181818"/>
<path d="M69.4284 -43H67.4544V90.3251H69.4284V-43Z" fill="white"/>
<path d="M9.39999 136.991L14.0248 147.199H120.226L124.851 136.991L79.618 105.746H54.6328L9.39999 136.991Z" fill="#2F2F2F"/>
<path d="M51.4744 75.5735L54.6328 105.746H79.618L82.7764 75.5735H51.4744Z" fill="#181818"/>
<path d="M9.39999 136.991L14.0248 147.199H120.226L124.851 136.991H9.39999Z" fill="#181818"/>
</svg>
