<svg width="332" height="74" viewBox="0 0 332 74" fill="none" xmlns="http://www.w3.org/2000/svg">
<g clip-path="url(#clip0_165616_199)">
<path d="M39.5483 70.5451C35.6527 72.8484 31.5233 74 27.1602 74C22.8283 74 19.0106 73.3619 15.7071 72.0858C12.4348 70.7785 9.62996 68.9733 7.29259 66.67C2.43086 61.8456 0 55.5739 0 47.8549C0 40.6961 2.3997 34.7356 7.1991 29.9735C12.3101 24.9312 18.9794 22.4101 27.207 22.4101C31.5701 22.4101 35.6838 23.3594 39.5483 25.258V7.04987H58.8082V73.1129H39.5483V70.5451ZM26.272 25.8183C25.3059 25.8183 24.3866 25.8805 23.5139 26.005V70.265C24.6359 70.4517 25.8513 70.5451 27.1602 70.5451C31.4922 70.5451 35.6215 69.1756 39.5483 66.4366V29.4132C35.341 27.0166 30.9156 25.8183 26.272 25.8183Z" fill="black"/>
<path d="M69.7939 47.9017C69.7939 44.1667 70.4639 40.774 71.804 37.7238C73.1753 34.6424 75.0452 31.9656 77.4137 29.6935C82.5247 24.838 88.9447 22.4102 96.6736 22.4102C104.558 22.4102 110.978 24.9313 115.934 29.9736C120.671 34.7357 123.039 40.7585 123.039 48.0417C123.039 55.3561 120.608 61.4722 115.747 66.39C110.729 71.4634 104.309 74.0001 96.4866 74.0001C88.8512 74.0001 82.5247 71.5879 77.5072 66.7635C72.365 61.7835 69.7939 55.4962 69.7939 47.9017ZM95.1777 70.4985C95.427 70.5296 95.6763 70.5452 95.9257 70.5452H96.5801C102.875 70.5452 108.158 68.5998 112.427 64.7093C116.978 60.5074 119.253 54.9982 119.253 48.1818C119.253 41.521 117.118 36.1208 112.848 31.9812C108.641 27.8727 103.203 25.8184 96.5334 25.8184H95.8322C95.614 25.8184 95.3959 25.834 95.1777 25.8651V70.4985Z" fill="black"/>
<path d="M144.87 15.0801C141.66 15.0801 139.151 14.3642 137.344 12.9325C135.536 11.5007 134.632 9.61767 134.632 7.28328C134.632 5.3224 135.63 3.64164 137.624 2.24101C139.744 0.747003 141.987 0 144.356 0C146.724 0 148.548 0.233438 149.825 0.700315C151.134 1.16719 152.241 1.77413 153.144 2.52114C154.952 4.04627 155.856 5.8204 155.856 7.84353C155.856 9.86667 154.827 11.5785 152.77 12.9792C150.714 14.3798 148.08 15.0801 144.87 15.0801ZM135.053 23.2505H155.155V73.1129H135.053V23.2505Z" fill="black"/>
<path d="M189.701 74C177.484 74 171.376 68.4286 171.376 57.2858L171.329 26.6587L165.953 26.8921C164.27 26.8921 163.429 26.254 163.429 24.9779C163.429 23.7018 164.333 23.0637 166.14 23.0637L170.628 23.2505H171.329V16.0139L191.384 7.04987V23.2505H197.648L202.089 23.0637C203.928 23.0637 204.847 23.7174 204.847 25.0246C204.847 25.616 204.582 26.0829 204.052 26.4252C203.554 26.7365 202.977 26.8921 202.323 26.8921L196.526 26.6587H191.384V70.5451C195.03 70.4829 198.069 69.4402 200.5 67.417C201.653 66.5455 202.463 65.425 202.93 64.0555C203.429 62.686 203.865 61.8145 204.239 61.441C204.645 61.0364 205.112 60.8341 205.642 60.8341C206.172 60.8341 206.623 61.0519 206.997 61.4877C207.371 61.8923 207.558 62.3903 207.558 62.9817C207.558 63.542 207.403 64.18 207.091 64.8959C206.779 65.5807 206.312 66.3121 205.689 67.0902C204.286 68.8332 202.666 70.2183 200.827 71.2454C197.492 73.0818 193.784 74 189.701 74Z" fill="black"/>
<path d="M212.701 68.024C212.233 66.779 211.999 65.4717 211.999 64.1022C211.999 62.7327 212.264 61.4877 212.794 60.3672C213.355 59.2156 214.134 58.204 215.132 57.3325C217.251 55.4339 219.9 54.4845 223.079 54.4845C226.351 54.4845 229 55.5584 231.026 57.706C232.896 59.6669 233.83 61.9701 233.83 64.6158C233.83 67.2614 232.771 69.4713 230.652 71.2454C228.47 73.0818 225.852 74 222.798 74C217.625 74 214.259 72.008 212.701 68.024Z" fill="black"/>
<path d="M257.438 15.0801C254.228 15.0801 251.719 14.3642 249.912 12.9325C248.104 11.5007 247.2 9.61767 247.2 7.28328C247.2 5.3224 248.197 3.64164 250.192 2.24101C252.311 0.747003 254.555 0 256.924 0C259.292 0 261.115 0.233438 262.393 0.700315C263.702 1.16719 264.808 1.77413 265.712 2.52114C267.52 4.04627 268.424 5.8204 268.424 7.84353C268.424 9.86667 267.395 11.5785 265.338 12.9792C263.281 14.3798 260.648 15.0801 257.438 15.0801ZM247.621 23.2505H267.722V73.1129H247.621V23.2505Z" fill="black"/>
<path d="M278.755 47.9017C278.755 44.1667 279.425 40.774 280.765 37.7238C282.136 34.6424 284.006 31.9656 286.375 29.6935C291.486 24.838 297.906 22.4102 305.634 22.4102C313.519 22.4102 319.939 24.9313 324.894 29.9736C329.631 34.7357 332 40.7585 332 48.0417C332 55.3561 329.569 61.4722 324.707 66.39C319.69 71.4634 313.27 74.0001 305.447 74.0001C297.812 74.0001 291.486 71.5879 286.468 66.7635C281.326 61.7835 278.755 55.4962 278.755 47.9017ZM304.139 70.4985C304.388 70.5296 304.637 70.5452 304.887 70.5452H305.541C311.836 70.5452 317.119 68.5998 321.388 64.7093C325.938 60.5074 328.213 54.9982 328.213 48.1818C328.213 41.521 326.079 36.1208 321.809 31.9812C317.602 27.8727 312.164 25.8184 305.494 25.8184H304.793C304.575 25.8184 304.357 25.834 304.139 25.8651V70.4985Z" fill="black"/>
</g>
<defs>
<clipPath id="clip0_165616_199">
<rect width="332" height="74" fill="white"/>
</clipPath>
</defs>
</svg>
