<svg width="36" height="36" viewBox="0 0 36 36" fill="none" xmlns="http://www.w3.org/2000/svg">
<path d="M0 17.7882C0 15.1819 0.453 12.8145 1.35907 10.686C2.28623 8.53576 3.5505 6.66786 5.15189 5.08237C8.60753 1.69414 12.9482 0 18.1739 0C23.5047 0 27.8453 1.75925 31.1962 5.27782C34.3989 8.60087 36 12.8036 36 17.8859C36 22.99 34.3564 27.2579 31.0697 30.6896C27.677 34.2299 23.3363 36 18.0474 36C12.885 36 8.60753 34.3167 5.21511 30.9502C1.73837 27.4751 0 23.0878 0 17.7882ZM17.1625 33.5565C17.331 33.5782 17.4996 33.5891 17.6682 33.5891H18.1106C22.3667 33.5891 25.9387 32.2317 28.825 29.5168C31.902 26.5846 33.4402 22.7403 33.4402 17.9837C33.4402 13.3357 31.9967 9.56741 29.1097 6.67875C26.2652 3.81179 22.5885 2.37828 18.0791 2.37828H17.605C17.4574 2.37828 17.31 2.38916 17.1625 2.41087V33.5565Z" fill="white"/>
</svg>
